<?xml version="1.0" encoding="UTF-8"?><svg id="uuid-40645fe2-4ae9-4cc2-a6c0-394505a0ad79" xmlns="http://www.w3.org/2000/svg" viewBox="0 0 262.06 263">
<title>Premier League 2007-2016 logo - Brandlogos.net</title><path d="M255.68,31.97c3.52,0,6.38,2.86,6.38,6.38,0,.57-.19,1.53-.37,2.18t-49.57,186.02l-.04.1c-1.71,5.03-5.49,9.09-10.37,11.13l-.23.09s-67.34,24.01-70.46,25.12c-3.12-1.11-70.46-25.12-70.46-25.12l-.23-.09c-4.88-2.04-8.66-6.1-10.37-11.13l-.03-.1Q.57,40.71.37,40.53c-.18-.64-.37-1.6-.37-2.18,0-3.52,2.86-6.38,6.38-6.38h249.3Z" style="fill:#fff;"/><path d="M6.38,33.83c-2.49,0-4.52,2.02-4.52,4.52,0,.4.05.8.16,1.17l49.51,185.96c1.44,4.79,4.91,8.65,9.53,10.58l.17.07,69.8,24.88,69.8-24.88.17-.07c4.62-1.93,8.09-5.79,9.53-10.58l49.51-185.96c.1-.38.16-.77.16-1.17,0-2.5-2.03-4.52-4.52-4.52H6.38Z" style="fill:#000043;"/><path d="M245.07,40.76c3.03,0,5.49,2.45,5.49,5.49,0,.49-.06.95-.18,1.4l-46.47,175.85c-.84,2.8-2.91,5.07-5.57,6.18l-67.3,23.99-67.3-23.99c-2.66-1.11-4.72-3.38-5.56-6.18L11.69,47.65c-.12-.45-.18-.92-.18-1.4,0-3.04,2.46-5.49,5.49-5.49h228.07Z" style="fill:#fff;"/><path d="M86.89.57h0s-4.13,4.86-4.48,5.26c-.36-.38-4.37-4.62-4.37-4.62-.4-.43-1.01-.61-1.58-.46-.57.14-1.02.59-1.17,1.16,0,0-.44,1.72-.49,1.92-.42-.55-1.32-1.75-1.32-1.75-.52-.63-1.42-.79-2.11-.37-.48.29-.77.82-.77,1.39l.13.64c.66,1.51,2.89,6.79,3.76,11.54,0-.02.03.06.06.13-.35.18-1.64.85-1.64.85-.31.21-.51.53-.61.9-.24-.05-.63-.12-.63-.12-1.96-.13-3.43.65-4.41,2.31-.5.85-.82,2.05-.82,3.05l.08.85c.16.79.53,1.23.88,1.47-1.61,1.99-2.44,5.17-3.16,8.01l-.42,1.63c-.93,3.47-2.95,6.38-5.15,7.42-.64.3-1.03.91-1.03,1.58l.07.49c.39,1.27,2.41,2.1,4.3,2.52-2.06,2.9-3.13,6.54-3.13,10.88,0,1.46.11,3,.34,4.58l.04.31c.18,1.9,1.41,2.14,1.79,2.17.2.01.73-.03,1.23-.45-.03.27-.11,1.36-.11,1.36,0,5.44,1.63,10.17,2.66,11.88.35.59.98.91,1.64.83.26-.03.49-.12.69-.26,0,.02,0,.08,0,.08,0,2.15-.52,4.89-1.98,6.09-.42.34-.66.83-.66,1.35l.06.45c.09.3.44,1.16,1.65,1.28.85.08,3.2-.37,5.35-2.09.02.36.04.77.04.77,0,5.41-2.56,9.98-4.18,11.59-.33.34-.51.78-.51,1.24l.07.48c.24.77.87,1.24,1.89,1.42,1.5.28,3.87.04,5.98-1.07.86,8.54,2.94,12.2,4.06,14.16l.42.75c.71,1.43.78,2.48.87,3.8l.02.25c.48,7.41,1.84,11.52,2.66,13.97l.47,1.53c.3,1.15.44,2.12.44,2.86l-.1.82c-.03.07-.05.13-.79.2l-.24.02s-1.45.02-1.45.02c-1.07-.03-2.18-.06-3.65.55-3.77,1.59-5.23,6.42-5.02,8.14.18,1.46,1.19,2.38,2.63,2.38h21.22c.71,0,1.34-.48,1.55-1.16,0,0,.07-.43.07-.43,0-.59-.28-1.09-.74-1.38-4.62-3.01-7.61-9.16-7.61-15.67s3.08-11.86,8.68-15.67c.74.31,1.72.47,2.96.43.06.03.1.05.19.09.45.2,1.21.54,2.56.54l1.01.03,2.23.05c1.21,0,1.85-.31,2.38-.78.25.22.58.46,1.05.64,1.54.54,6.33-.02,6.37-.02,1.15-.18,2.11-.97,2.72-2.21,1.21-.09,3.25-.27,4.27-.49,1.08-.24,1.58-.29,1.8-.29.11.26.85,2.1.85,2.1,0,.01.1.2.1.2,1.12,2.06,3.68,5.8,5.6,7.49,3.64,3.19,7.57,6.31,8.66,6.97.15.09.35.26.35.78l-.08.63c-.16.77-1.18,4.26-2.41,5.86-.96,1.25-1.45,1.63-2.62,1.59-1.65-.07-4.63.01-6.16,1.36-3.12,2.73-3.28,5.89-3.28,6.49l.02.33c.06.99.82,2.45,2.65,2.45h11.97c1.53,0,2.23-.57,2.75-1.19l.08-.09.45-.55.92-1.12s-.03.01-.04.02c.12-.09.34-.29.93-.81.6-.5,1.36-1.13,1.84-1.8.52-.71.8-1.55,1.04-2.3,0,0-.04.02-.05.04.09-.15.23-.51.56-1.38.47-1,2.98-4.68,5.21-7.8.78-1.09,1.47-2.35,1.47-3.86,0-1.14-.39-2.42-1.42-3.89,0,0-.75-.96-.75-.96-1.34-1.66-4.11-5.1-4.5-7.8,0-.01-.02-.14-.02-.14,0,0-.16-1.48-.16-1.48,0-.63.15-1.18.6-2.18,0,0,.2-.4.2-.4.28-.61.48-.93.59-.98.48-.02,2.38,2.48,3.29,3.67,1.31,1.73,2.95,3.89,5.05,6.05,1.87,1.93,3.49,3.72,5.39,5.99,1.36,1.61,4.44,8.07,5.02,9.74.44,1.25.48,2.44.38,2.76-.17.54-.44.99-.77,1.52l-.64,1.09c-.96,1.79-.93,4.17-.48,5.74.63,2.24,2.42,2.18,3.37,2.15h.53s10.85-.01,10.85-.01c2.27,0,2.64-1.71,2.77-2.28l.02-.12s.12-1.15.12-1.15c0-1.64-.59-3.39-1.58-4.68-.01,0-.85-.92-.85-.92-.79-.77-1.76-1.72-2.41-3.76-1.09-3.38-1.36-6.2-1.63-8.93,0,.02-.02-.25-.02-.25l-.56-4.38c-.32-1.75-.87-2.69-1.46-3.69-.38-.65-.78-1.32-1.19-2.39-.28-.79-.72-8.1-.72-11.17l.04-2.68c0-5.35-.66-9.72-1.94-13.05,7.09-2.46,11.84-7.67,11.84-13.05v-.5c-.63-11.66-18.98-12.04-24.59-11.88l-.44.02c-10.03.33-12.59-1.11-13.23-1.75-.2-.2-.24-.35-.24-.51.02-.59,1.79-1.68,2.97-1.97,1.06.85,2.8,2.16,5.93,1.69,3.06-.46,5.71-2.85,7.39-4.78,1.01-1.16,2.59-2.73,4.75-3.11,1.52-.26,1.84-1.16,1.91-1.67.05-.41,0-1.43-1.44-2.06-2.88-1.25-7.29-2.15-11.16-1.05-.05-.12-.09-.23-.09-.23-.41-.56-1.01-.81-1.65-.72-5.46.75-7.19,4.13-7.86,5.5-5.11,1.9-8.04,5.07-8.04,8.72v.26c.34,9.39,15.21,9.19,20.82,9.11h.18c6.04-.09,15.27,1.1,15.94,4.71,0,0,.04.39.04.39,0,.52-.23,1.09-.68,1.67-1.25,1.6-3.97,2.88-6.79,3.21-1.88-1.82-4.18-3.6-10.76-5.49h0s-.17-.04-2.96-.59c-4.35-.76-11.63-2.02-16.82-5.67-7.87-5.53-11.33-7.4-15.71-9.78l-.92-.5c-2.62-1.43-4.86-3.16-6.74-5.13.89-.09,1.68-.29,2.28-.63.47-.27.77-.75.81-1.29h0c0-.6-.23-1.09-.64-1.4-2.33-1.76-3.3-3.49-4.37-6.25-.66-1.69-1.29-2.95-1.98-4.08.11-.04.22-.08.22-.08.44-.3.7-.79.7-1.33-.01-4.26-2.48-7.33-3.95-9.16l-.56-.72c-.52-.66-.94-1.77-.94-2.47l.09-.45h0c.06-.12.13-.24.13-.24l.36-.71.16-.63v-.03c0-.26-.12-.48-.24-.7.42-.28.7-.67.73-1.13,0,0,.02-.53.02-.53l-.09-1.15c-.24-1.55-1.52-4.16-3.93-4.65-1.07-.22-1.75-.04-2.24.17-.16-.14-.52-.43-.73-.6.19-.22.39-.43.44-.7.85-4.74,3.09-10.03,3.75-11.53,0,0,.14-.65.14-.65,0-.56-.3-1.09-.78-1.38-.69-.42-1.59-.26-2.1.36,0,0-.85,1.13-1.33,1.76-.17-.64-.5-1.92-.5-1.92-.14-.57-.59-1.01-1.16-1.16-.57-.15-1.17.03-1.58.46t-1.99,2.11s-2.03,2.15-2.37,2.51c-.34-.4-4.47-5.26-4.47-5.26-.31-.36-.76-.57-1.24-.57s-.92.21-1.23.57" style="fill:#fff;"/><path d="M99.89,8.09l-.67-5.23-5.89,5.9-5.28-6.59-5.27,6.59-5.89-5.9-.67,5.23s-3.05-3.13-3.96-4.26c1.47,3.32,3.17,8.15,3.86,11.57,3.6-1.14,8.09-1.47,11.93-1.47s8.33.33,11.94,1.47c.69-3.43,2.39-8.26,3.86-11.57-.91,1.12-3.96,4.26-3.96,4.26M78.29,13.23l.1-3.73,3.64,3.1c-1.41.15-2.7.39-3.75.64M88.05,12.3c-1.11,0-2.2.03-3.23.09l3.23-3.73,3.24,3.73c-1.03-.06-2.12-.09-3.24-.09M94.07,12.59l3.64-3.1.1,3.73c-1.05-.25-2.33-.48-3.75-.64" style="fill:#000043;"/><path d="M182.77,140.9c-.74-.98-2.46-1.93-3.48-5.13-1.75-5.43-1.47-9.44-2.25-13.66-.46-2.51-1.5-2.99-2.55-5.74-.47-1.22-.92-7.76-.81-12.19.1-3.77.1-11.11-2.42-16.05,7.82-2.06,12.56-6.96,12.27-12.34-.44-8.34-11.42-10.61-22.73-10.29-3.4.09-15.81.67-15.45-3.92.15-2,3.3-3.41,4.62-3.49,1.11.84,2.83,2.19,5.66,1.69,6-1.04,6.5-7.41,12.71-7.92-2.5-2.06-9.42-2.89-13.18-.51,0-.73.27-1.4.57-1.88-5.03.69-6.07,3.7-6.75,5.07-5.42,1.81-7.73,4.7-7.62,7.64.27,7.86,14.28,7.52,19.2,7.5,5.14-.02,16.41.62,17.42,5.99.68,3.62-4.21,6.93-9.54,7.21-7.42-8.33-19.77-4.32-31.33-12.56-13.37-9.52-20.37-10.32-25.36-18.1,1.2.52,3.74.87,5.25,0-2.62-1.98-3.73-3.97-4.87-6.9-1.38-3.53-2.41-5.08-4.35-6.81,1.16-.05,2.41.49,3.18.78-.01-4.24-2.98-7.21-4.15-8.82-1.01-1.39-2.01-3.48-.54-5.5-1.54-1.7-2.98-.68-3.58-.16-.52.45-.94.37-.64-.66.32-1.08,1.4-2.58,2.7-2.52,1.17.05,1.76,1.06,2.01,1.43.26-2.49-.67-4.3-2.33-4.61-.98-.19-1.9.12-2.6.6-.58-.96-1.08-1.68-2.82-2.28-.73-.25-3.31-.83-5.31-1.05-1.4,1.09-2.92,2.71-4.16,4.67-.14-.94.14-3,.71-4.93-4.99-.17-12.54.3-16.08,2.62.71.67,1.13,1.58,1.19,2.14.07.77-.22.64-.53.33-.32-.32-1.28-1.49-2.82-1.6-3.24-.25-3.74,3.72-3.01,5.03.31-.96.96-1.74,1.98-1.79,1.59-.07,2.72,1.93,2.9,2.97.14.75-.24.81-.73.35-.66-.62-1.33-.83-2.17-.68-3.01.54-4.11,5.76-5.15,10.29-.99,4.31-3.32,7.29-6.16,8.49.63.89,3.28,1.97,6.06,1.69-6.08,5.33-5.04,14.72-4.23,17.47.32-1.11,1.92-5.42,4.81-6.71-3.95,8.03-1.22,17.65.34,20.23.26-1.12.9-2.41,1.6-3.14,1.5,2.42,1.52,9.32-1.71,12.06,1.95.09,4.84-.59,6.55-4.08,1.91,7.4-1.64,14.64-4.06,17.06.69.38,5.05,1.1,7.58-2.14.68,11.75,3.6,15.28,4.51,17.11.91,1.83.98,3.11,1.05,4.66.52,11.28,4.36,15.79,3.39,19.56-.32,1.25-1.66,1.32-2.39,1.4-1.7.18-2.17-.1-3.97.46-3.42,1.06-4.17,5.22-4.04,6.37.09.73.46.94,1.02.94h15.82c1.15,0,1.53-.63,1.9-2.07-3.53-3.75-5.77-8.79-5.77-14.34,0-7.79,4.25-14.69,10.56-18.3,0,0,.39,1.04,2.69.96.94-.03,1.03-.6,1.6-.55.86.08.45.84,1.88,1.1.84.15,1.64.19,2.6.18,1.12-.01,1.5-.4,1.76-.71.37-.47.96-.39,1.24.01.22.32.5.6,1.05.76.87.25,4.15.27,5.43-.02.94-.22,1.24-.78,1.56-1.46.18-.38.32-.83,1-.83,2.17.03,4.29-.41,5.54-.68,1.74-.38,2.21.35,2.52,1.28,2.44,7.34,10.66,12.8,14.26,15.49,1.06.79,1.3,1.73,1.01,3.09-.18.89-1.24,4.63-2.69,6.48-1.28,1.63-1.88,2.04-3.99,2.24-1.02.09-3.84.05-5.2,1.21-2.2,1.88-2.48,4.84-2.44,5.28,0,0,.04.91,1.02.91h11.44c1.07,0,1.6-.19,2.01-.7.29-.36.79-1,1.35-1.64.54-.65,1.87-1.36,2.64-2.49.58-.86.84-2.22,1.36-3.44.92-2.12,3.26-5.13,5.33-8.01,1.35-1.89,1.51-3.39.04-5.83-1.06-1.77-8.4-8.63-4.57-14.9.78-1.28,2.12-2.11,3.24-1.04,1.17,1.14,1.56,3.69,12.6,14.74,1.39,1.39,1.82,2.08,2.3,3,1.49,2.84,3.32,6.87,3.85,8.16.75,1.79.62,3.03.39,3.76-.35,1.09-.95,1.82-1.52,2.88-.73,1.36-.74,3.35-.34,4.55.3.92,1.03.95,2.33.95h10.77c1.03,0,1.07-.54,1.2-1.12.24-1.01,0-3.05-1.16-4.54M75.95,28.38c.31-.2,1.15-.7,2.31-1.1,1.52-.54,1.69-.98,1.42-2.55-.12-.71.37-1.02,1.16-1.31.56-.2,2.32-.69,3.5-.94.57.36,2.6,3.08,3.72,4.67,1.11-1.59,3.14-4.32,3.71-4.67,1.69.34,3.37.84,4.77,1.32,1.28.44,1.86.95,2.47,2.63.47,1.31.65,2.81.65,2.81,0,0-.86.18-2.1.04-1.43-.17-2.24-.62-2.95-.47-1.22.25-2.74,1.78-2.88,2.41-.26,1.31.21,2.36.31,2.7.38-1.43,1.14-2.41,2.09-2.47.39-.03.91.24,1.63.33.42.05.85.03,1.23-.23.89-.6,1.47-1.32,2.05-1.62,0,0,.84,1.51,1.23,2.84.28.95-.18,1.7-1.76,2.46-.91.44-2.16,1.2-2.95,1.91-.78.7-.61,1.54-.22,2.18.73,1.18,1.35,2.82,1.44,4.15.04.61-.19,1.07-.65,1.33-.6.35-1.61.59-2.9.53-1.38-.07-3.14-1.76-4.54-2.21l.28-2.2s2.16-1.35,3.41-2.48c.29-.26.16-.8.12-1.16-1.13-.37-2.95-.64-4.44-.64-1.15,0-2.51.2-3.59.42.31-1.46.66-4.22.14-5.86-.19-.62-2.26-2.15-3.48-2.41-.71-.14-1.52.31-2.95.48-1.25.14-2.4-.18-2.4-.18,0,0,.04-.64.13-.7M87.41,51.25c.09.48.17,2.18-.47,3.14-.12.19-.26.21-.48,0-.46-.45-1.47-1.51-2.75-1.98-.57-.22-2.88-.5-2.15-3.94.07-.33.18-.59.73-.74.69-.19,1.61-.67,2.81-1.92.3-.32.92-.56,1.6-.34.53.17.91.26,1.37.26s.83-.09,1.36-.26c.68-.22,1.3.02,1.61.34,1.19,1.26,2.11,1.7,2.92,1.96.51.17.55.62.38.93-.18.34-.46,1-.59,1.55-.12.55-.3,1.53-1.33,2.27-.44.31-1.66.94-2.57,1.94-.18.19-.38.25-.4-.04-.03-.3-.09-2.44-1.5-3.51-.38-.28-.64-.13-.54.37M79.98,44.79c-.46-.26-.69-.72-.65-1.34.12-1.76,1.17-4.06,2.15-5.12.15-.16,1.51-.56,2.18.05,1.27,1.14,3.47,2.53,3.47,2.53l.28,2.2c-1.4.45-3.16,2.14-4.54,2.2-1.29.07-2.3-.17-2.9-.52M75.68,34.58c-.58-.39-.99-1.71.45-4.82.58.3,1.76,1.18,2.65,1.77.39.26.81.28,1.23.23.73-.09,1.25-.37,1.64-.34,1.08.07,1.1,2.47,1.11,2.77.02.3-.12.31-.32.15-.49-.39-.94-.39-1.28-.39-.48,0-1.61.46-2.09.59-.48.13-2.4.72-3.4.04M79.65,76.15c-4.11-8.1,4.77-9.97,7.82-13.66-.56,4.05-6.63,5.89-7.82,13.66M91.53,90.26c1.01-1.92,3.59-7.17,1.26-14.23-2.46,1.34-4.84,4.97-5.69,8.61-2.67-10.4,5.32-14.02,7.14-23.08,2.35,4.17-3.29,9.79,1.18,14.66,2.8-11.53,13.66-7.41,13.05-21.5,4.9,11.35-2.26,14.39-3.83,22.94-1.48-2.56-1.6-5.75-.18-9.31-7.14,3.46-3.26,18.47-12.92,21.9M169.9,101.43c-.32,1.46-1.61,1.84-2.3.87-1.26-1.77-1.79-10.92-11.7-15.59-1.5-.7-1.98.14-1.6,1.01,1.56,3.45,2.22,6.7,1.77,9.93-.14,1.05-.83,1.58-1.44.45-.54-1.02-1.69-2.97-2.6-3.84-1.71-1.64-3.98-1.62-5.99-1.36-2,.27-10.43,2.83-12.28.54-1.14-1.41-2.75-4.37-1.85-7.95.24-.95-.61-1.27-1.59-.6-3,2.04-1.83,9.09-1.63,10.41.23,1.53.32,2.76-1.03,4.05-2.06,1.97-5.38,5.54-6.71,6.47-1.34.93-2.72.76-3.64,1.66-.71.69-.68,2.52-1.87,2.86-.58.17-1.89.25-2.83.12-.92-.13-1.39-.26-1.51-1.75-.05-.56-.43-.75-.91-.03-.38.55-.73,1.14-1.55,1.36-.94.26-2.22.36-3.36.11-.83-.18-1.18-.41-1.18-1.21,0-.35.02-.66,0-.88-.03-.29-.28-.31-.6-.09-.56.37-.8,1.29-1.96,1.33-.66.02-2.53.02-1.98-2.07.31-1.17,1.08-4.55,5.18-5.36,1.62-.31,6.05.17,7.52-.1,1.62-.31,2.83-1.27,2.83-2.33s-3.33-.82-3.53-1.82c-.38-1.89,5.56-3.32,5.25-5.25-.23-1.47-1.88-1.5-2.15-2.56-.28-1.07,1.82-3.97,1.82-6.41,0-3.23-1.82-5.07-2.33-7.6-.48-2.42.06-5.66,1.13-7.3.75-1.15,1.3-1.49,3-1.68,5.92-.64,13.42,5.42,15.42,6.66,6.55,4.06,10.22,4.88,18.37,6.36,4.88.89,10.37,1.36,14.49,7.15,2.14,3.02,4.31,10.16,3.37,14.42" style="fill:#000043;"/><path d="M115.7,118.96c-3-.16-6.84.58-9.03,1.87-.01,3.1-.33,6.26-.92,8.99,2.03,1.5,6.26,3.28,8.66,3.79,1.87-1.37,4.28-4.2,5.57-6.36-.75-3.09-2.21-6.31-4.28-8.29M114.19,122.33c-2.46-.64-6.24-.65-6.24-.65,2.11-.72,4.78-1.32,7.13-1.27,1.48,1.6,2.47,3.81,3.36,6.33,0,0-2.17-2.8-4.25-4.4" style="fill:#ec1a3b;"/><path d="M118.67,114.21s-.46.75-2.57.85c.26.33.66,1.06.78,1.48,0,0,2.48.17,4.08.58,1.75,1.56,3.06,3.4,3.99,5.64,0,.02-1.08,2.27-2.36,4.48,1.07,2.21,2.29,5.02,2.5,7.58-1.2,3.1-3.33,5.74-6.04,7.58.37-.88.78-2.09,1.04-3.34-1.53-.13-4.21-.68-5.61-1.14-1.64,2.04-3.64,3.42-6.18,4.69.37.83,1.14,2.01,1.67,2.57-4.14,0-7.93-1.55-10.8-4.11,0,0,2.07.28,3.91-.07-.43-2.3-.59-6.28-.39-8.32-2.9-.82-5.52-1.95-7.61-3.25-.39.76-.82,1.8-1.08,2.43-.66-3.73-.08-7.56,1.87-10.94.27.42.53.86.75,1.24,1.94-1.33,4.59-2.7,7.43-3.61.13-1.15.42-2.8.66-3.87,0,0-1.07-.1-1.54-.58-.23-.23-.5-.21-.7-.12-.97.46-2.39.16-2.67.02-5.45,3.22-9.21,9.24-9.21,16.03,0,10.23,8.28,18.51,18.51,18.51s18.51-8.29,18.51-18.51c0-6.72-3.58-12.59-8.92-15.83M117.15,143.9c-.11-.97-.26-2.14-.31-2.77-.86-.77-1.63-1.44-2.26-1.95,1.05.31,2.83.73,4.02.96-.18.83-1.05,3.08-1.44,3.75M124.49,126.88l.98-2.18s1.41,4.69.06,8.6c0,0,0-3.28-1.04-6.42" style="fill:#ec1a3b;"/><path d="M63.9,153.37h-8.44c1.02.6,1.54,2.67,1.54,4.11v20.65c0,1.84-.85,3.63-1.49,4.16h7.04v-10.01s.6.03,1.11.03c6.99,0,11.25-4.44,11.25-10.02s-3.94-8.81-11.01-8.93M63.41,167.66c-.51,0-.86-.02-.86-.02v-9.75s.52.02,1.2.02c3.75,0,5.41,1.83,5.41,4.73,0,3.11-2.34,4.99-5.75,5.03" style="fill:#000043;"/><path d="M91.95,171.19c-.76-1.36-1.46-1.72-1.46-1.72,2.85-.92,5.32-3.77,5.32-8.03,0-5.88-4.09-8.09-10.44-8.09h-9.11c1.02.61,1.54,2.68,1.54,4.12v20.64c0,1.86-.85,3.64-1.48,4.17h7.04v-11.85h.74c1.37,0,1.63.98,1.88,1.45l4.88,10.41h6.86l-5.78-11.09ZM84.65,166.39h-1.29v-8.55h1.47c3.56,0,5.2,1.38,5.2,4.15s-2.04,4.4-5.37,4.4" style="fill:#000043;"/><path d="M201.21,171.19c-.77-1.36-1.46-1.72-1.46-1.72,2.85-.92,5.32-3.77,5.32-8.03,0-5.88-4.09-8.09-10.44-8.09h-9.1c1.02.61,1.53,2.68,1.53,4.12v20.64c0,1.86-.85,3.64-1.48,4.17h7.04v-11.85h.74c1.38,0,1.63.98,1.88,1.45l4.88,10.41h6.86l-5.78-11.09ZM193.9,166.39h-1.29v-8.55h1.46c3.56,0,5.2,1.38,5.2,4.15s-2.05,4.4-5.37,4.4" style="fill:#000043;"/><path d="M127.12,153.35l6.41,11.02c.85,1.44,1.34,2.28,1.69,3.25h.04c.38-1,.9-1.8,1.78-3.26l6.43-11h5.52v28.93h-5.58s0-19.45,0-19.42h-.06c-.38,1.22-1.14,2.5-1.57,3.22l-5.2,8.51h-2.62l-5.21-8.51c-.36-.54-.97-1.76-1.45-3.22h-.1v19.39h-6.99c.64-.53,1.48-2.31,1.48-4.17v-20.64c0-1.45-.51-3.5-1.54-4.1h6.97Z" style="fill:#000043;"/><path d="M160.5,182.26h-7.04c.63-.53,1.48-2.31,1.48-4.17v-20.64c0-1.44-.52-3.51-1.54-4.11h7.09s0,28.92,0,28.92Z" style="fill:#000043;"/><path d="M100.06,182.27c.64-.54,1.48-2.31,1.48-4.17v-20.65c0-1.44-.52-3.51-1.54-4.12l16.49.02v4.7h-9.38v6.98h8.27v4.63h-8.27v7.87h10.05l-1.97,4.76-15.14-.03Z" style="fill:#000043;"/><path d="M165.51,182.27c.63-.54,1.48-2.31,1.48-4.17v-20.65c0-1.44-.51-3.51-1.54-4.12l16.49.02v4.7h-9.38v6.98h8.28v4.63h-8.28v7.87h10.06l-1.97,4.76-15.14-.03Z" style="fill:#000043;"/><path d="M81.35,216.92c.64-.53,1.48-2.32,1.48-4.17v-20.65c0-1.44-.51-3.51-1.53-4.11h16.49v4.71h-9.39v6.98h8.28v4.63h-8.28v7.87h10.06l-1.98,4.75-15.14-.03Z" style="fill:#000043;"/><path d="M182.45,216.92c.64-.53,1.49-2.32,1.49-4.17v-20.65c0-1.44-.51-3.51-1.54-4.11h16.49v4.71h-9.39v6.98h8.28v4.63h-8.28v7.87h10.06l-1.97,4.75-15.14-.03Z" style="fill:#000043;"/><path d="M63.14,216.92c.64-.53,1.48-2.32,1.48-4.17v-20.65c0-1.44-.51-3.51-1.54-4.11h7.11s0,24.2,0,24.2h9.62l-1.97,4.75-14.7-.03Z" style="fill:#000043;"/><path d="M145.59,211.82v-5.01c0-1.85-.83-3.65-1.47-4.18h6.94l.03,12.34c-2.41,1.34-6.39,2.34-9.84,2.34-9.11,0-14.42-5.86-14.42-14.64s5.8-14.98,15.99-14.98c2.68,0,5.25.62,6.91,1.33v5.49c-1.68-1-4.56-1.87-7.25-1.87-5.66,0-9.65,3.29-9.65,10.01,0,6.09,3.22,9.67,9.05,9.67,1.36,0,2.78-.18,3.7-.49" style="fill:#000043;"/><path d="M124.46,212.88c-.39-1.09-8.43-24.81-8.43-24.81h-5.65s-8.04,23.74-8.43,24.82c-.64,1.77-1.42,3.48-2.24,4.05h6.56l1.86-5.88h10.1l1.9,5.87h6.56c-.82-.57-1.6-2.28-2.24-4.05M109.45,206.67l2.42-7.33c.51-1.66.95-3.11,1.27-4.81h.04c.33,1.7.72,3.14,1.23,4.72l2.49,7.42h-7.44Z" style="fill:#000043;"/><path d="M155.94,192.23c0-1.85-.83-3.65-1.46-4.19l6.88.02v18.45c0,3.79,1.35,6.18,5.86,6.18,4.18,0,5.94-2.38,5.94-6.15v-18.48h5.4v18.74c0,5.92-3.45,10.48-11.72,10.48s-10.92-4.62-10.92-10.43l.02-14.62Z" style="fill:#000043;"/></svg>